<svg xmlns="http://www.w3.org/2000/svg" viewBox="0 0 980 150" font-family="system-ui,Segoe UI,Arial" font-size="11" fill="#1f2933">
  <defs>
    <marker id="ar" markerWidth="9" markerHeight="9" refX="7" refY="3" orient="auto">
      <path d="M0,0 L7,3 L0,6 Z" fill="#5b6470"/>
    </marker>
  </defs>
  <g stroke="#5b6470" marker-end="url(#ar)">
    <line x1="70" y1="60" x2="128" y2="60"/>
    <line x1="172" y1="60" x2="233" y2="60"/>
    <line x1="277" y1="60" x2="338" y2="60"/>
    <line x1="382" y1="60" x2="443" y2="60"/>
    <line x1="487" y1="60" x2="540" y2="60"/>
    <line x1="580" y1="60" x2="639" y2="60"/>
    <line x1="671" y1="60" x2="754" y2="60"/>
    <line x1="786" y1="60" x2="869" y2="60"/>
  </g>
  <g text-anchor="middle" fill="#3a4654" font-size="10.5">
    <text x="99" y="50">Conv1</text>
    <text x="202" y="50">ReLU</text>
    <text x="307" y="50">ResBlock</text>
    <text x="412" y="50">ReLU</text>
    <text x="513" y="50">Flatten</text>
    <text x="609" y="50">Linear</text>
    <text x="712" y="50">Sigmoid</text>
    <text x="827" y="50">BCE</text>
  </g>
  <!-- dashed grouping around Sigmoid → Label → BCE -->
  <rect x="688" y="30" width="214" height="62" rx="7" fill="none" stroke="#8794a3" stroke-dasharray="5 4"/>
  <!-- nodes -->
  <g stroke="#8794a3">
    <rect x="36" y="46" width="34" height="34" fill="#c4cdd9"/>
    <rect x="30" y="40" width="34" height="34" fill="#d7dee7"/>
    <rect x="130" y="42" width="42" height="36" rx="3" fill="#e7ecf2"/>
    <rect x="235" y="42" width="42" height="36" rx="3" fill="#e7ecf2"/>
    <rect x="340" y="42" width="42" height="36" rx="3" fill="#e7ecf2"/>
    <rect x="445" y="42" width="42" height="36" rx="3" fill="#e7ecf2"/>
    <rect x="544" y="34" width="36" height="52" rx="3" fill="#e7ecf2"/>
    <circle cx="655" cy="60" r="15" fill="#eef2f7"/>
    <circle cx="770" cy="60" r="15" fill="#eef2f7"/>
    <circle cx="885" cy="60" r="15" fill="#eef2f7"/>
  </g>
  <g text-anchor="middle" font-size="9.5" fill="#1f2933">
    <text x="47" y="62">I</text>
    <text x="151" y="64">F₁</text>
    <text x="256" y="64">F₂</text>
    <text x="361" y="64">F₃</text>
    <text x="466" y="64">F₄</text>
    <text x="562" y="64">X</text>
    <text x="655" y="64">z</text>
    <text x="770" y="64">ŷ</text>
    <text x="885" y="64">L</text>
  </g>
  <g text-anchor="middle" font-size="9" fill="#6b7785">
    <text x="47" y="100">I (1×3×2×2)</text>
    <text x="151" y="100">F₁ (1×1×2×2)</text>
    <text x="256" y="100">F₂ (1×1×2×2)</text>
    <text x="361" y="100">F₃ (1×1×2×2)</text>
    <text x="466" y="100">F₄ (1×1×2×2)</text>
    <text x="562" y="100">X (1×4)</text>
    <text x="655" y="100">Output (1×1)</text>
    <text x="770" y="100">Label (1×1)</text>
    <text x="885" y="100">Loss (1×1)</text>
  </g>
</svg>
